<svg width="28" height="28" viewBox="0 0 28 28" fill="none" xmlns="http://www.w3.org/2000/svg">
<path d="M20.8959 15.0914H15.0915V20.8958C15.0915 21.5343 14.5691 22.0567 13.9306 22.0567C13.2921 22.0567 12.7697 21.5343 12.7697 20.8958V15.0914H6.96532C6.32684 15.0914 5.80444 14.569 5.80444 13.9305C5.80444 13.2921 6.32684 12.7697 6.96532 12.7697H12.7697V6.96526C12.7697 6.32678 13.2921 5.80438 13.9306 5.80438C14.5691 5.80438 15.0915 6.32678 15.0915 6.96526V12.7697H20.8959C21.5344 12.7697 22.0568 13.2921 22.0568 13.9305C22.0568 14.569 21.5344 15.0914 20.8959 15.0914Z" fill="white"/>
</svg>
