<svg width="24" height="24" viewBox="0 0 24 24" fill="none" xmlns="http://www.w3.org/2000/svg">
<circle cx="12" cy="12" r="12" fill="white"/>
<path d="M21.0938 12.057C21.0938 7.00474 17.0234 2.90929 12.0029 2.90929C6.98018 2.91042 2.90973 7.00474 2.90973 12.0582C2.90973 16.6229 6.23473 20.407 10.5802 21.0934V14.7013H8.27337V12.0582H10.5825V10.0411C10.5825 7.74906 11.9404 6.48315 14.0165 6.48315C15.012 6.48315 16.0518 6.66156 16.0518 6.66156V8.91156H14.9052C13.7768 8.91156 13.4245 9.61724 13.4245 10.3411V12.057H15.945L15.5427 14.7002H13.4234V21.0922C17.7688 20.4059 21.0938 16.6218 21.0938 12.057Z" fill="#4A82EC"/>
</svg>
