<svg
  width="12"
  height="12"
  viewBox="0 0 12 12"
  fill="none"
  xmlns="http://www.w3.org/2000/svg"
>
  <g clip-path="url(#clip0_512_4649)">
    <path
      d="M9.5 4C10.3284 4 11 3.32843 11 2.5C11 1.67157 10.3284 1 9.5 1C8.67157 1 8 1.67157 8 2.5C8 3.32843 8.67157 4 9.5 4Z"
      stroke="#959494"
      stroke-linecap="round"
      stroke-linejoin="round"
    />
    <path
      d="M4.5 8C5.32843 8 6 7.32843 6 6.5C6 5.67157 5.32843 5 4.5 5C3.67157 5 3 5.67157 3 6.5C3 7.32843 3.67157 8 4.5 8Z"
      stroke="#959494"
      stroke-linecap="round"
      stroke-linejoin="round"
    />
    <path
      d="M2 3C2.55228 3 3 2.55228 3 2C3 1.44772 2.55228 1 2 1C1.44772 1 1 1.44772 1 2C1 2.55228 1.44772 3 2 3Z"
      stroke="#959494"
      strokeWidth="0.666667"
      strokeLinecap="round"
      strokeLinejoin="round"
    />
    <path
      d="M2 11C2.55228 11 3 10.5523 3 10C3 9.44772 2.55228 9 2 9C1.44772 9 1 9.44772 1 10C1 10.5523 1.44772 11 2 11Z"
      stroke="#959494"
      strokeWidth="0.666667"
      strokeLinecap="round"
      strokeLinejoin="round"
    />
    <path
      d="M9.5 11C10.3284 11 11 10.3284 11 9.5C11 8.67157 10.3284 8 9.5 8C8.67157 8 8 8.67157 8 9.5C8 10.3284 8.67157 11 9.5 11Z"
      stroke="#959494"
      strokeLinecap="round"
      strokeLinejoin="round"
    />
    <path
      d="M6 8L8 9"
      stroke="#959494"
      strokeLinecap="round"
      strokeLinejoin="round"
    />
    <path
      d="M8 3L6 5"
      stroke="#959494"
      strokeLinecap="round"
      strokeLinejoin="round"
    />
    <path
      d="M2.5 3L4 5"
      stroke="#959494"
      stroke-linecap="round"
      stroke-linejoin="round"
    />
    <path
      d="M3.5 8L2.5 9"
      stroke="#959494"
      stroke-linecap="round"
      stroke-linejoin="round"
    />
  </g>
  <defs>
    <clipPath id="clip0_512_4649">
      <rect
        width="12"
        height="12"
        fill="white"
      />
    </clipPath>
  </defs>
</svg>