<svg width="19" height="19" viewBox="0 0 19 19" fill="none" xmlns="http://www.w3.org/2000/svg">
<g clip-path="url(#clip0_452_1619)">
<path opacity="0.5" d="M15.7884 9.72817C14.8884 8.77817 13.6884 8.12817 12.4384 7.87817C11.8884 7.72817 11.3384 7.62817 10.7884 7.57817C12.1884 5.92817 11.9384 3.42817 10.2884 2.02817C8.63841 0.62817 6.13841 0.87817 4.73841 2.52817C3.33841 4.17817 3.58841 6.67817 5.23841 8.07817C5.53841 8.32817 5.83841 8.52817 6.13841 8.62817V9.72817L5.33841 8.97817C4.63841 8.27817 3.48841 8.27817 2.73841 8.97817C2.03841 9.67817 1.98841 10.7782 2.68841 11.4782L4.98841 14.1782C5.08841 14.8782 5.33841 15.5282 5.68841 16.1282C5.93841 16.5782 6.28841 17.0282 6.63841 17.3782V18.3282C6.63841 18.6282 6.83841 18.8282 7.13841 18.8282H13.9384C14.1884 18.8282 14.4384 18.5782 14.4384 18.3282V17.0282C15.3884 15.8782 15.8884 14.4282 15.8884 12.9782V10.0782C15.9384 9.87817 15.8884 9.77817 15.7884 9.72817ZM4.78841 5.02817C4.78841 3.37817 6.13841 2.07817 7.78841 2.12817C9.43841 2.12817 10.7384 3.47817 10.6884 5.12817C10.6884 6.02817 10.2884 6.82817 9.58841 7.37817V4.87817C9.56288 4.44486 9.37256 4.03772 9.05648 3.74023C8.74039 3.44273 8.32248 3.27742 7.88841 3.27817C6.98841 3.22817 6.18841 3.97817 6.18841 4.87817V7.47817C5.33841 6.97817 4.83841 6.02817 4.78841 5.02817ZM14.9384 12.9282C14.9884 14.2282 14.5384 15.4782 13.6884 16.4782C13.5884 16.5782 13.4884 16.6782 13.4884 16.8282V17.8782H7.68841V17.1782C7.68841 17.0282 7.58841 16.8782 7.48841 16.7782C7.13841 16.4782 6.83841 16.1282 6.58841 15.6782C6.28841 15.1782 6.08841 14.5782 5.98841 13.9782C5.98841 13.8782 5.93841 13.7782 5.88841 13.6782L3.48841 10.8282C3.33841 10.6782 3.23841 10.4782 3.23841 10.2282C3.23841 10.0282 3.33841 9.77817 3.48841 9.62817C3.83841 9.32817 4.33841 9.32817 4.68841 9.62817L6.13841 11.0782V12.5782L7.08841 12.0782V4.87817C7.13841 4.52817 7.43841 4.22817 7.83841 4.27817C8.18841 4.27817 8.53841 4.52817 8.53841 4.87817V10.6282L9.53841 10.8282V8.52817C9.58841 8.47817 9.63841 8.47817 9.68841 8.42817C10.0384 8.42817 10.3884 8.47817 10.7384 8.52817V11.0782L11.5384 11.2282V8.62817L12.1384 8.77817C12.3884 8.82817 12.6384 8.92817 12.8884 9.02817V11.5282L13.6884 11.6782V9.37817C14.1384 9.57817 14.5384 9.87817 14.8884 10.2282L14.9384 12.9282Z" fill="url(#paint0_linear_452_1619)"/>
</g>
<defs>
<linearGradient id="paint0_linear_452_1619" x1="0.01184" y1="10.3269" x2="17.1773" y2="10.3269" gradientUnits="userSpaceOnUse">
<stop stop-color="#5E32B6"/>
<stop offset="1" stop-color="#D538F6"/>
</linearGradient>
<clipPath id="clip0_452_1619">
<rect width="18" height="18" fill="white" transform="translate(0.588379 0.927734)"/>
</clipPath>
</defs>
</svg>
