<svg width="24" height="24" viewBox="0 0 24 24" fill="none" xmlns="http://www.w3.org/2000/svg">
<path d="M19.1111 4H5.88889C4.84568 4 4 4.84568 4 5.88889V19.1111C4 20.1543 4.84568 21 5.88889 21H19.1111C20.1543 21 21 20.1543 21 19.1111V5.88889C21 4.84568 20.1543 4 19.1111 4Z" stroke="url(#paint0_linear_660_2475)" stroke-width="1.4" stroke-linecap="round" stroke-linejoin="round"/>
<path d="M9.5 11C10.3284 11 11 10.3284 11 9.5C11 8.67157 10.3284 8 9.5 8C8.67157 8 8 8.67157 8 9.5C8 10.3284 8.67157 11 9.5 11Z" stroke="url(#paint1_linear_660_2475)" stroke-width="1.4" stroke-linecap="round" stroke-linejoin="round"/>
<path d="M21 15.5451C21 15.5451 20.625 10.4997 16.3125 10.9997C12 11.4997 6 20.9997 6 20.9997" stroke="url(#paint2_linear_660_2475)" stroke-width="1.4" stroke-linecap="round" stroke-linejoin="round"/>
<defs>
<linearGradient id="paint0_linear_660_2475" x1="4" y1="12.84" x2="21" y2="12.84" gradientUnits="userSpaceOnUse">
<stop stop-color="#C93DF2"/>
<stop offset="1" stop-color="#4DAAE9"/>
</linearGradient>
<linearGradient id="paint1_linear_660_2475" x1="8" y1="9.56" x2="11" y2="9.56" gradientUnits="userSpaceOnUse">
<stop stop-color="#C93DF2"/>
<stop offset="1" stop-color="#4DAAE9"/>
</linearGradient>
<linearGradient id="paint2_linear_660_2475" x1="6" y1="16.183" x2="21" y2="16.183" gradientUnits="userSpaceOnUse">
<stop stop-color="#C93DF2"/>
<stop offset="1" stop-color="#4DAAE9"/>
</linearGradient>
</defs>
</svg>
