<svg width="518" height="103" viewBox="0 0 518 103" fill="none" xmlns="http://www.w3.org/2000/svg">
<path d="M12.294 2.79125V101.15H0V2.79125H12.294Z" fill="white"/>
<path d="M39.5966 16.4817C37.2549 16.4817 35.2735 15.6842 33.6523 14.0892C32.0311 12.4942 31.2205 10.5447 31.2205 8.24083C31.2205 5.93695 32.0311 3.9875 33.6523 2.3925C35.2735 0.7975 37.2549 0 39.5966 0C41.8483 0 43.7397 0.7975 45.2708 2.3925C46.892 3.9875 47.7026 5.93695 47.7026 8.24083C47.7026 10.5447 46.892 12.4942 45.2708 14.0892C43.7397 15.6842 41.8483 16.4817 39.5966 16.4817ZM45.541 28.3113V101.15H33.247V28.3113H45.541Z" fill="white"/>
<path d="M102.565 26.9821C111.572 26.9821 118.867 29.6847 124.451 35.09C130.035 40.4067 132.827 48.1158 132.827 58.2175V101.15H120.669V59.9454C120.669 52.6793 118.822 47.1411 115.13 43.3308C111.437 39.432 106.393 37.4825 99.9985 37.4825C93.5138 37.4825 88.335 39.4763 84.4621 43.4638C80.6794 47.4513 78.788 53.2553 78.788 60.8759V101.15H66.494V28.3113H78.788V38.6788C81.2197 34.9571 84.5071 32.0772 88.6502 30.0392C92.8833 28.0011 97.5217 26.9821 102.565 26.9821Z" fill="white"/>
<path d="M194.25 101.15L165.204 68.9838V101.15H152.91V2.79125H165.204V60.61L193.71 28.3113H210.867L176.012 64.5975L211.002 101.15H194.25Z" fill="white"/>
<path d="M255.943 7.84209C265.94 7.84209 274.676 9.79153 282.152 13.6904C289.627 17.5893 295.392 23.0832 299.445 30.1721C303.588 37.1724 305.659 45.2803 305.659 54.4959C305.659 63.6228 303.588 71.7307 299.445 78.8196C295.392 85.9085 289.582 91.4024 282.017 95.3013C274.541 99.2002 265.85 101.15 255.943 101.15H220.412V7.84209H255.943ZM254.457 81.4779C263.193 81.4779 269.993 79.1297 274.857 74.4334C279.72 69.737 282.152 63.0911 282.152 54.4959C282.152 45.9006 279.72 39.2104 274.857 34.4254C269.993 29.6404 263.193 27.2479 254.457 27.2479H243.514V81.4779H254.457Z" fill="white"/>
<path d="M363.422 102.08C354.506 102.08 346.31 100.042 338.834 95.9658C331.449 91.8897 325.55 86.2186 321.136 78.9525C316.813 71.5978 314.652 63.357 314.652 54.23C314.652 45.1031 316.813 36.9065 321.136 29.6404C325.55 22.3743 331.449 16.7032 338.834 12.6271C346.31 8.55098 354.506 6.51292 363.422 6.51292C372.339 6.51292 380.49 8.55098 387.875 12.6271C395.351 16.7032 401.205 22.3743 405.438 29.6404C409.761 36.9065 411.923 45.1031 411.923 54.23C411.923 63.357 409.761 71.5978 405.438 78.9525C401.115 86.2186 395.261 91.8897 387.875 95.9658C380.49 100.042 372.339 102.08 363.422 102.08ZM363.422 81.345C370.988 81.345 377.022 78.8639 381.526 73.9017C386.119 68.9395 388.416 62.3822 388.416 54.23C388.416 45.9892 386.119 39.432 381.526 34.5583C377.022 29.5961 370.988 27.115 363.422 27.115C355.767 27.115 349.642 29.5518 345.049 34.4254C340.546 39.299 338.294 45.9006 338.294 54.23C338.294 62.4708 340.546 69.0724 345.049 74.0346C349.642 78.9082 355.767 81.345 363.422 81.345Z" fill="white"/>
<path d="M493 7.84209V26.0517H467.872V101.15H444.77V26.0517H419.641V7.84209H493Z" fill="white"/>
<circle cx="505.5" cy="89.5" r="12.5" fill="white"/>
</svg>
