<svg width="73" height="15" viewBox="0 0 73 15" fill="none" xmlns="http://www.w3.org/2000/svg">
  <path d="M1.73255 0.393362V14.2547H0V0.393362H1.73255Z" fill="#070303"/>
  <path d="M5.58022 2.32271C5.25021 2.32271 4.97097 2.21032 4.7425 1.98554C4.51403 1.76076 4.3998 1.48603 4.3998 1.16135C4.3998 0.836674 4.51403 0.561945 4.7425 0.337167C4.97097 0.112389 5.25021 0 5.58022 0C5.89754 0 6.16408 0.112389 6.37986 0.337167C6.60833 0.561945 6.72256 0.836674 6.72256 1.16135C6.72256 1.48603 6.60833 1.76076 6.37986 1.98554C6.16408 2.21032 5.89754 2.32271 5.58022 2.32271ZM6.41794 3.98981V14.2547H4.68539V3.98981H6.41794Z" fill="#070303"/>
  <path d="M14.4542 3.8025C15.7235 3.8025 16.7516 4.18337 17.5385 4.94512C18.3255 5.69438 18.7189 6.7808 18.7189 8.2044V14.2547H17.0054V8.44791C17.0054 7.42392 16.7452 6.64344 16.2248 6.10647C15.7044 5.55701 14.9936 5.28228 14.0925 5.28228C13.1786 5.28228 12.4487 5.56326 11.903 6.1252C11.3699 6.68715 11.1033 7.50509 11.1033 8.57903V14.2547H9.37077V3.98981H11.1033V5.45087C11.446 4.92639 11.9093 4.52054 12.4932 4.23332C13.0897 3.9461 13.7434 3.8025 14.4542 3.8025Z" fill="#070303"/>
  <path d="M27.375 14.2547L23.2816 9.72165V14.2547H21.5491V0.393362H23.2816V8.54157L27.2988 3.98981H29.7168L24.8047 9.10351L29.7358 14.2547H27.375Z" fill="#070303"/>
  <path d="M36.0691 1.10516C37.478 1.10516 38.7092 1.37989 39.7627 1.92934C40.8162 2.4788 41.6285 3.25304 42.1997 4.25205C42.7836 5.23858 43.0755 6.3812 43.0755 7.67992C43.0755 8.96615 42.7836 10.1088 42.1997 11.1078C41.6285 12.1068 40.8099 12.881 39.7437 13.4305C38.6902 13.9799 37.4653 14.2547 36.0691 14.2547H31.0619V1.10516H36.0691ZM35.8597 11.4824C37.0909 11.4824 38.0492 11.1515 38.7346 10.4896C39.42 9.8278 39.7627 8.89122 39.7627 7.67992C39.7627 6.46861 39.42 5.52579 38.7346 4.85146C38.0492 4.17712 37.0909 3.83996 35.8597 3.83996H34.3176V11.4824H35.8597Z" fill="#070303"/>
  <path d="M51.2159 14.3858C49.9593 14.3858 48.8043 14.0986 47.7508 13.5241C46.71 12.9497 45.8786 12.1505 45.2567 11.1265C44.6474 10.09 44.3428 8.92868 44.3428 7.64245C44.3428 6.35622 44.6474 5.20111 45.2567 4.17713C45.8786 3.15314 46.71 2.35393 47.7508 1.77949C48.8043 1.20506 49.9593 0.917844 51.2159 0.917844C52.4725 0.917844 53.6211 1.20506 54.6619 1.77949C55.7154 2.35393 56.5405 3.15314 57.137 4.17713C57.7463 5.20111 58.0509 6.35622 58.0509 7.64245C58.0509 8.92868 57.7463 10.09 57.137 11.1265C56.5278 12.1505 55.7027 12.9497 54.6619 13.5241C53.6211 14.0986 52.4725 14.3858 51.2159 14.3858ZM51.2159 11.4637C52.2821 11.4637 53.1325 11.114 53.7671 10.4147C54.4144 9.71541 54.7381 8.79132 54.7381 7.64245C54.7381 6.4811 54.4144 5.55701 53.7671 4.87019C53.1325 4.17088 52.2821 3.82123 51.2159 3.82123C50.137 3.82123 49.2739 4.16464 48.6266 4.85146C47.9919 5.53828 47.6746 6.46861 47.6746 7.64245C47.6746 8.80381 47.9919 9.73414 48.6266 10.4334C49.2739 11.1203 50.137 11.4637 51.2159 11.4637Z" fill="#070303"/>
  <path d="M69.4768 1.10516V3.67138H65.9356V14.2547H62.6799V3.67138H59.1386V1.10516H69.4768Z" fill="#070303"/>
  <circle cx="71.2384" cy="12.6131" r="1.76158" fill="#070303"/>
  </svg>
  