<svg width="114" height="23" viewBox="0 0 114 23" fill="none" xmlns="http://www.w3.org/2000/svg">
<path d="M2.70563 0.614291V22.2607H0V0.614291H2.70563Z" fill="black"/>
<path d="M8.71432 3.62724C8.19896 3.62724 7.76289 3.45173 7.4061 3.1007C7.04931 2.74968 6.87092 2.32065 6.87092 1.81362C6.87092 1.30659 7.04931 0.877558 7.4061 0.526535C7.76289 0.175512 8.19896 0 8.71432 0C9.20985 0 9.6261 0.175512 9.96307 0.526535C10.3199 0.877558 10.4982 1.30659 10.4982 1.81362C10.4982 2.32065 10.3199 2.74968 9.96307 3.1007C9.6261 3.45173 9.20985 3.62724 8.71432 3.62724ZM10.0225 6.23066V22.2607H7.3169V6.23066H10.0225Z" fill="black"/>
<path d="M22.5723 5.93814C24.5544 5.93814 26.16 6.53293 27.3889 7.72251C28.6178 8.89259 29.2323 10.5892 29.2323 12.8123V22.2607H26.5564V13.1926C26.5564 11.5935 26.1501 10.3747 25.3374 9.53613C24.5247 8.67807 23.4147 8.24905 22.0074 8.24905C20.5802 8.24905 19.4405 8.68782 18.5882 9.56538C17.7557 10.4429 17.3394 11.7203 17.3394 13.3974V22.2607H14.6338V6.23066H17.3394V8.51231C17.8746 7.69326 18.5981 7.05947 19.5099 6.61094C20.4415 6.16241 21.4623 5.93814 22.5723 5.93814Z" fill="black"/>
<path d="M42.75 22.2607L36.3576 15.1818V22.2607H33.652V0.614291H36.3576V13.3389L42.6311 6.23066H46.4071L38.7362 14.2164L46.4368 22.2607H42.75Z" fill="black"/>
<path d="M56.3272 1.72586C58.5273 1.72586 60.45 2.15489 62.0952 3.01295C63.7404 3.87101 65.0089 5.08009 65.9009 6.64019C66.8127 8.18079 67.2686 9.96516 67.2686 11.9933C67.2686 14.0019 66.8127 15.7863 65.9009 17.3464C65.0089 18.9065 63.7305 20.1156 62.0655 20.9736C60.4203 21.8317 58.5075 22.2607 56.3272 22.2607H48.5076V1.72586H56.3272ZM56.0001 17.9314C57.9228 17.9314 59.4193 17.4147 60.4897 16.3811C61.56 15.3475 62.0952 13.8849 62.0952 11.9933C62.0952 10.1017 61.56 8.62932 60.4897 7.57625C59.4193 6.52318 57.9228 5.99664 56.0001 5.99664H53.5918V17.9314H56.0001Z" fill="black"/>
<path d="M79.981 22.4655C78.0186 22.4655 76.2149 22.017 74.5697 21.1199C72.9444 20.2228 71.646 18.9748 70.6748 17.3757C69.7234 15.757 69.2476 13.9434 69.2476 11.9348C69.2476 9.92616 69.7234 8.12229 70.6748 6.52318C71.646 4.92408 72.9444 3.67599 74.5697 2.77893C76.2149 1.88188 78.0186 1.43335 79.981 1.43335C81.9433 1.43335 83.7371 1.88188 85.3625 2.77893C87.0077 3.67599 88.2961 4.92408 89.2277 6.52318C90.1791 8.12229 90.6548 9.92616 90.6548 11.9348C90.6548 13.9434 90.1791 15.757 89.2277 17.3757C88.2762 18.9748 86.9878 20.2228 85.3625 21.1199C83.7371 22.017 81.9433 22.4655 79.981 22.4655ZM79.981 17.9022C81.646 17.9022 82.974 17.3561 83.9651 16.2641C84.976 15.172 85.4814 13.7289 85.4814 11.9348C85.4814 10.1212 84.976 8.67807 83.9651 7.6055C82.974 6.51343 81.646 5.96739 79.981 5.96739C78.2961 5.96739 76.9483 6.50368 75.9374 7.57625C74.9463 8.64882 74.4508 10.1017 74.4508 11.9348C74.4508 13.7484 74.9463 15.2013 75.9374 16.2933C76.9483 17.3659 78.2961 17.9022 79.981 17.9022Z" fill="black"/>
<path d="M108.498 1.72586V5.73338H102.968V22.2607H97.8837V5.73338H92.3535V1.72586H108.498Z" fill="black"/>
<circle cx="111.249" cy="19.6973" r="2.75097" fill="black"/>
</svg>
