<svg width="151" height="39" viewBox="0 0 151 39" fill="none" xmlns="http://www.w3.org/2000/svg">
<path d="M2.71841 16.5146V38.7077H0V16.5146H2.71841Z" fill="white"/>
<path d="M8.7555 19.6036C8.2377 19.6036 7.79957 19.4237 7.4411 19.0638C7.08263 18.7039 6.90339 18.264 6.90339 17.7442C6.90339 17.2244 7.08263 16.7845 7.4411 16.4246C7.79957 16.0647 8.2377 15.8848 8.7555 15.8848C9.25337 15.8848 9.67159 16.0647 10.0101 16.4246C10.3686 16.7845 10.5479 17.2244 10.5479 17.7442C10.5479 18.264 10.3686 18.7039 10.0101 19.0638C9.67159 19.4237 9.25337 19.6036 8.7555 19.6036ZM10.0699 22.2728V38.7077H7.35148V22.2728H10.0699Z" fill="white"/>
<path d="M22.679 21.9729C24.6705 21.9729 26.2836 22.5827 27.5183 23.8023C28.7531 25.002 29.3704 26.7414 29.3704 29.0207V38.7077H26.6819V29.4106C26.6819 27.7711 26.2736 26.5215 25.4571 25.6618C24.6406 24.782 23.5254 24.3422 22.1114 24.3422C20.6775 24.3422 19.5324 24.792 18.676 25.6917C17.8396 26.5915 17.4214 27.9011 17.4214 29.6205V38.7077H14.703V22.2728H17.4214V24.6121C17.9591 23.7723 18.686 23.1225 19.6021 22.6627C20.5381 22.2028 21.5637 21.9729 22.679 21.9729Z" fill="white"/>
<path d="M42.952 38.7077L36.5294 31.45V38.7077H33.811V16.5146H36.5294V29.5606L42.8325 22.2728H46.6264L38.9192 30.4603L46.6562 38.7077H42.952Z" fill="white"/>
<path d="M56.5933 17.6542C58.8039 17.6542 60.7357 18.0941 62.3886 18.9738C64.0416 19.8535 65.3161 21.0932 66.2123 22.6927C67.1284 24.2722 67.5865 26.1016 67.5865 28.181C67.5865 30.2404 67.1284 32.0698 66.2123 33.6693C65.3161 35.2688 64.0316 36.5084 62.3588 37.3882C60.7058 38.2679 58.784 38.7077 56.5933 38.7077H48.7368V17.6542H56.5933ZM56.2647 34.2691C58.1965 34.2691 59.7001 33.7393 60.7755 32.6796C61.8509 31.6199 62.3886 30.1204 62.3886 28.181C62.3886 26.2416 61.8509 24.732 60.7755 23.6524C59.7001 22.5727 58.1965 22.0329 56.2647 22.0329H53.845V34.2691H56.2647Z" fill="white"/>
<path d="M80.3589 38.9177C78.3873 38.9177 76.575 38.4578 74.9221 37.5381C73.289 36.6184 71.9846 35.3388 71.0088 33.6993C70.0528 32.0398 69.5749 30.1804 69.5749 28.121C69.5749 26.0616 70.0528 24.2122 71.0088 22.5727C71.9846 20.9332 73.289 19.6536 74.9221 18.7339C76.575 17.8142 78.3873 17.3543 80.3589 17.3543C82.3305 17.3543 84.1328 17.8142 85.7659 18.7339C87.4188 19.6536 88.7133 20.9332 89.6493 22.5727C90.6052 24.2122 91.0832 26.0616 91.0832 28.121C91.0832 30.1804 90.6052 32.0398 89.6493 33.6993C88.6934 35.3388 87.3989 36.6184 85.7659 37.5381C84.1328 38.4578 82.3305 38.9177 80.3589 38.9177ZM80.3589 34.2391C82.0318 34.2391 83.3661 33.6793 84.3618 32.5596C85.3775 31.44 85.8854 29.9604 85.8854 28.121C85.8854 26.2616 85.3775 24.782 84.3618 23.6824C83.3661 22.5627 82.0318 22.0029 80.3589 22.0029C78.6661 22.0029 77.3119 22.5527 76.2962 23.6524C75.3005 24.752 74.8026 26.2416 74.8026 28.121C74.8026 29.9804 75.3005 31.47 76.2962 32.5896C77.3119 33.6893 78.6661 34.2391 80.3589 34.2391Z" fill="white"/>
<path d="M109.011 17.6542V21.763H103.454V38.7077H98.3462V21.763H92.7899V17.6542H109.011Z" fill="white"/>
<ellipse cx="116.348" cy="35.1693" rx="3.78252" ry="3.83069" fill="white"/>
<mask id="mask0_279_3686" style="mask-type:alpha" maskUnits="userSpaceOnUse" x="116" y="2" width="33" height="34">
<ellipse rx="16.2993" ry="16.4418" transform="matrix(0.989276 0.146092 -0.140003 0.990156 132.574 18.6611)" fill="#C4C4C4"/>
</mask>
<g mask="url(#mask0_279_3686)">
<rect width="42.895" height="33.1556" transform="matrix(0.712513 0.704093 -0.692629 0.718935 128.101 -9.22357)" fill="white"/>
</g>
</svg>
