<svg width="142" height="36" viewBox="0 0 142 36" fill="none" xmlns="http://www.w3.org/2000/svg">
<path d="M2.55639 15.1977V35.6212H0V15.1977H2.55639Z" fill="black"/>
<path d="M8.23365 18.0405C7.74671 18.0405 7.3347 17.8749 6.99759 17.5437C6.66048 17.2125 6.49193 16.8077 6.49193 16.3293C6.49193 15.8509 6.66048 15.4461 6.99759 15.115C7.3347 14.7838 7.74671 14.6182 8.23365 14.6182C8.70185 14.6182 9.09514 14.7838 9.41352 15.115C9.75062 15.4461 9.91918 15.8509 9.91918 16.3293C9.91918 16.8077 9.75062 17.2125 9.41352 17.5437C9.09514 17.8749 8.70185 18.0405 8.23365 18.0405ZM9.4697 20.4968V35.6212H6.91331V20.4968H9.4697Z" fill="black"/>
<path d="M21.3272 20.2208C23.2001 20.2208 24.717 20.782 25.8782 21.9044C27.0393 23.0084 27.6199 24.6091 27.6199 26.7067V35.6212H25.0916V27.0654C25.0916 25.5567 24.7077 24.4067 23.9398 23.6155C23.172 22.806 22.1232 22.4012 20.7935 22.4012C19.4451 22.4012 18.3682 22.8152 17.5629 23.6431C16.7763 24.4711 16.383 25.6763 16.383 27.2586V35.6212H13.8266V20.4968H16.383V22.6496C16.8887 21.8768 17.5722 21.2788 18.4337 20.8556C19.314 20.4324 20.2785 20.2208 21.3272 20.2208Z" fill="black"/>
<path d="M40.392 35.6212L34.3521 28.9422V35.6212H31.7957V15.1977H34.3521V27.2034L40.2796 20.4968H43.8473L36.5995 28.0314L43.8754 35.6212H40.392Z" fill="black"/>
<path d="M53.2202 16.2465C55.299 16.2465 57.1157 16.6513 58.6701 17.4609C60.2245 18.2705 61.4231 19.4112 62.2659 20.8832C63.1274 22.3368 63.5581 24.0203 63.5581 25.9339C63.5581 27.829 63.1274 29.5126 62.2659 30.9845C61.4231 32.4565 60.2152 33.5973 58.642 34.4069C57.0876 35.2164 55.2803 35.6212 53.2202 35.6212H45.832V16.2465H53.2202ZM52.9112 31.5365C54.7278 31.5365 56.1418 31.0489 57.1531 30.0738C58.1644 29.0986 58.6701 27.7186 58.6701 25.9339C58.6701 24.1491 58.1644 22.76 57.1531 21.7664C56.1418 20.7728 54.7278 20.276 52.9112 20.276H50.6357V31.5365H52.9112Z" fill="black"/>
<path d="M75.5693 35.8144C73.7152 35.8144 72.011 35.3912 70.4565 34.5449C68.9208 33.6985 67.6941 32.5209 66.7765 31.0121C65.8775 29.485 65.428 27.7738 65.428 25.8787C65.428 23.9835 65.8775 22.2816 66.7765 20.7728C67.6941 19.264 68.9208 18.0865 70.4565 17.2401C72.011 16.3937 73.7152 15.9705 75.5693 15.9705C77.4234 15.9705 79.1183 16.3937 80.654 17.2401C82.2084 18.0865 83.4258 19.264 84.306 20.7728C85.2049 22.2816 85.6544 23.9835 85.6544 25.8787C85.6544 27.7738 85.2049 29.485 84.306 31.0121C83.407 32.5209 82.1897 33.6985 80.654 34.5449C79.1183 35.3912 77.4234 35.8144 75.5693 35.8144ZM75.5693 31.5089C77.1425 31.5089 78.3973 30.9937 79.3337 29.9634C80.2888 28.933 80.7664 27.5714 80.7664 25.8787C80.7664 24.1675 80.2888 22.806 79.3337 21.794C78.3973 20.7636 77.1425 20.2484 75.5693 20.2484C73.9774 20.2484 72.7039 20.7544 71.7488 21.7664C70.8124 22.7784 70.3442 24.1491 70.3442 25.8787C70.3442 27.5898 70.8124 28.9606 71.7488 29.991C72.7039 31.0029 73.9774 31.5089 75.5693 31.5089Z" fill="black"/>
<path d="M102.513 16.2465V20.0276H97.2883V35.6212H92.4845V20.0276H87.2594V16.2465H102.513Z" fill="black"/>
<ellipse cx="109.416" cy="32.3651" rx="3.55707" ry="3.52523" fill="black"/>
<mask id="mask0_1281_6058" style="mask-type:alpha" maskUnits="userSpaceOnUse" x="109" y="1" width="31" height="32">
<ellipse cx="15.2761" cy="15.182" rx="15.2761" ry="15.182" transform="matrix(0.990031 0.140869 -0.145195 0.989405 111.758 0)" fill="#C4C4C4"/>
</mask>
<g mask="url(#mask0_1281_6058)">
<rect width="39.9281" height="30.8473" transform="matrix(0.718019 0.694285 -0.702433 0.713455 120.547 -8.4873)" fill="black"/>
</g>
</svg>
