<svg width="15" height="15" viewBox="0 0 15 15" fill="none" xmlns="http://www.w3.org/2000/svg">
<path fill-rule="evenodd" clip-rule="evenodd" d="M1.49189 2.35765C0.845468 2.45057 0.265205 2.94981 0.0647338 3.58557L0 3.79089V8.18482V12.5787L0.0618078 12.7704C0.148472 13.0391 0.3038 13.2866 0.516728 13.4952C0.726646 13.7009 0.926922 13.825 1.21679 13.929L1.42119 14.0023L7.02917 14.0095C13.2973 14.0177 12.8474 14.0314 13.2768 13.819C13.6837 13.6177 14.0234 13.2275 14.1778 12.7841L14.2398 12.6061L14.248 10.0738C14.2543 8.12755 14.2482 7.51316 14.2218 7.41918C14.151 7.16776 13.8544 6.9796 13.5848 7.01513C13.4135 7.03769 13.2353 7.15464 13.1468 7.30267L13.0694 7.43197L13.0554 9.95296L13.0415 12.474L12.9653 12.5811C12.9234 12.64 12.8428 12.719 12.7862 12.7567L12.6833 12.8251H7.11955H1.55576L1.44669 12.7503C1.38669 12.7091 1.30624 12.63 1.26792 12.5744L1.19826 12.4733L1.19104 8.20677C1.18399 4.04763 1.18516 3.93771 1.23724 3.8382C1.30591 3.70707 1.42186 3.59964 1.55266 3.54596C1.63983 3.51017 1.81572 3.50344 2.66125 3.50344C3.50677 3.50344 3.68266 3.49671 3.76983 3.46092C3.99179 3.36984 4.13817 3.15836 4.13817 2.92875C4.13817 2.68716 4.0325 2.51244 3.8177 2.39888C3.70986 2.34186 3.67308 2.3398 2.68911 2.33586C2.12969 2.33362 1.59095 2.34342 1.49189 2.35765Z" fill="#453E3E"/>
<path d="M10.5467 8.16722C10.551 8.16325 10.5594 8.15531 10.573 8.14213C10.6031 8.11301 10.6468 8.06962 10.7038 8.01225C10.7903 7.92527 10.902 7.8114 11.0331 7.67694C11.0324 7.60498 11.0318 7.52545 11.0311 7.43745V7.43744L11.023 6.426L11.0173 5.71666L10.3081 5.73178L9.63253 5.74618L9.63252 5.74618C9.08375 5.75789 8.84557 5.77155 8.55079 5.83515C7.1745 6.13205 6.01081 6.88103 5.20432 7.98032C5.20079 8.11556 5.19928 8.26367 5.20009 8.40843C5.20098 8.56518 5.20453 8.70655 5.2101 8.81104C5.21117 8.83111 5.21225 8.84872 5.21332 8.86397C5.21332 8.86397 5.21332 8.86398 5.21332 8.86398C5.21506 8.88906 5.21675 8.90772 5.21818 8.92037C5.21877 8.92561 5.21911 8.92799 5.21911 8.92799C5.21911 8.92799 5.21877 8.92563 5.21797 8.92138C5.21713 8.91687 5.21502 8.90603 5.21109 8.89098C5.20927 8.88401 5.2061 8.87237 5.20119 8.85738C5.20118 8.85738 5.20118 8.85737 5.20118 8.85736C5.19691 8.84435 5.19132 8.82881 5.18416 8.81162L5.1462 8.82743L5.14617 8.82745L4.92973 8.9176L4.92964 8.91764L4.53798 9.08078C4.64564 9.33922 4.99708 9.427 5.20877 9.24831C5.25318 9.21084 5.34143 9.08481 5.40487 8.96822C6.09863 7.69357 7.26068 6.82956 8.6984 6.51941C8.91736 6.47217 9.09301 6.45816 9.62309 6.44655L9.62301 6.43724L9.64725 6.43705L10.323 6.43162L10.3379 7.13146L10.3286 7.13166L10.3311 7.44306C10.3392 8.45041 10.3395 8.45493 10.4035 8.55824M10.5467 8.16722C10.5381 8.17462 10.5366 8.17649 10.5452 8.16855C10.5457 8.16817 10.5461 8.16773 10.5467 8.16722ZM10.5467 8.16722C10.558 8.15753 10.5816 8.13837 10.6106 8.11931L10.7556 8.34002L10.4035 8.55824M10.4035 8.55824L10.7556 8.34003M10.4035 8.55824C10.5267 8.75699 10.8088 8.82664 10.995 8.70427M10.7556 8.34003L10.9939 0.0565817C11.1212 0.140278 14.9252 4.11851 14.9638 4.20846C15.0121 4.32075 15.0121 4.44085 14.9638 4.55313C14.9254 4.64256 11.1216 8.62107 10.995 8.70427M10.7556 8.34003L10.995 8.70427M10.995 8.70427L10.7557 8.34003" fill="#EDECF3" stroke="#453E3E" stroke-width="1.4"/>
</svg>
