<svg width="16" height="15" viewBox="0 0 16 15" fill="none" xmlns="http://www.w3.org/2000/svg">
<path fill-rule="evenodd" clip-rule="evenodd" d="M2.00092 3.28578C1.3545 3.3787 0.774238 3.87794 0.573767 4.5137L0.509033 4.71902V9.11295V13.5069L0.570841 13.6985C0.657506 13.9673 0.812833 14.2147 1.02576 14.4233C1.23568 14.629 1.43596 14.7531 1.72582 14.8571L1.93022 14.9305L7.53821 14.9377C13.8063 14.9458 13.3564 14.9595 13.7859 14.7471C14.1927 14.5458 14.5324 14.1557 14.6868 13.7122L14.7488 13.5343L14.757 11.0019C14.7633 9.05568 14.7572 8.4413 14.7308 8.34731C14.66 8.09589 14.3634 7.90773 14.0938 7.94326C13.9225 7.96582 13.7443 8.08277 13.6558 8.2308L13.5784 8.3601L13.5645 10.8811L13.5505 13.4021L13.4743 13.5092C13.4325 13.5682 13.3519 13.6472 13.2952 13.6848L13.1924 13.7533H7.62858H2.06479L1.95572 13.6784C1.89572 13.6373 1.81527 13.5581 1.77696 13.5025L1.70729 13.4014L1.70007 9.13491C1.69302 4.97576 1.69419 4.86584 1.74628 4.76633C1.81494 4.6352 1.93089 4.52777 2.0617 4.47409C2.14886 4.43831 2.32476 4.43157 3.17028 4.43157C4.0158 4.43157 4.1917 4.42484 4.27886 4.38906C4.50082 4.29797 4.6472 4.08649 4.6472 3.85688C4.6472 3.61529 4.54153 3.44057 4.32674 3.32701C4.21889 3.26999 4.18211 3.26793 3.19815 3.26399C2.63873 3.26175 2.09998 3.27155 2.00092 3.28578Z" fill="url(#paint0_linear_452_612)"/>
<path d="M11.0556 9.09495C11.0599 9.09099 11.0683 9.08305 11.0819 9.06987C11.112 9.04074 11.1557 8.99736 11.2127 8.93998C11.2992 8.853 11.4109 8.73913 11.542 8.60467C11.5414 8.53271 11.5407 8.45318 11.54 8.36519V8.36517L11.5319 7.35373L11.5262 6.6444L10.817 6.65952L10.1414 6.67392L10.1414 6.67392C9.59266 6.68562 9.35448 6.69929 9.0597 6.76288C7.68341 7.05978 6.51972 7.80877 5.71323 8.90805C5.7097 9.0433 5.70819 9.1914 5.709 9.33616C5.70989 9.49291 5.71344 9.63428 5.71901 9.73877C5.72008 9.75884 5.72116 9.77645 5.72223 9.7917C5.72223 9.79171 5.72223 9.79171 5.72223 9.79172C5.72398 9.81679 5.72566 9.83546 5.72709 9.84811C5.72768 9.85334 5.72803 9.85573 5.72802 9.85573C5.72802 9.85573 5.72768 9.85337 5.72688 9.84911C5.72604 9.84461 5.72393 9.83376 5.72 9.81872C5.71818 9.81174 5.71501 9.8001 5.7101 9.78512C5.7101 9.78511 5.71009 9.7851 5.71009 9.78509C5.70582 9.77208 5.70024 9.75655 5.69307 9.73935L5.65511 9.75517L5.65508 9.75518L5.43864 9.84534L5.43855 9.84537L5.04689 10.0085C5.15456 10.267 5.50599 10.3547 5.71768 10.176C5.76209 10.1386 5.85034 10.0125 5.91378 9.89596C6.60754 8.62131 7.76959 7.75729 9.20732 7.44714C9.42627 7.3999 9.60192 7.38589 10.132 7.37428L10.1319 7.36498L10.1562 7.36478L10.8319 7.35936L10.8468 8.0592L10.8375 8.0594L10.84 8.37079C10.8481 9.37814 10.8484 9.38267 10.9124 9.48598M11.0556 9.09495C11.047 9.10236 11.0455 9.10423 11.0542 9.09629C11.0546 9.09591 11.0551 9.09546 11.0556 9.09495ZM11.0556 9.09495C11.0669 9.08527 11.0905 9.06611 11.1195 9.04704L11.2645 9.26776L10.9124 9.48598M10.9124 9.48598L11.2646 9.26777M10.9124 9.48598C11.0356 9.68473 11.3177 9.75438 11.5039 9.632M11.2646 9.26777L11.5028 0.984316C11.6302 1.06801 15.4341 5.04625 15.4728 5.1362C15.5211 5.24848 15.5211 5.36858 15.4728 5.48086C15.4343 5.57029 11.6305 9.5488 11.5039 9.632M11.2646 9.26777L11.5039 9.632M11.5039 9.632L11.2646 9.26776" fill="url(#paint1_linear_452_612)" stroke="url(#paint2_linear_452_612)" stroke-width="1.4"/>
<defs>
<linearGradient id="paint0_linear_452_612" x1="-1.75092" y1="9.33606" x2="16.0776" y2="9.33606" gradientUnits="userSpaceOnUse">
<stop stop-color="#5E32B6"/>
<stop offset="1" stop-color="#D538F6"/>
</linearGradient>
<linearGradient id="paint1_linear_452_612" x1="3.34356" y1="5.78564" x2="16.4804" y2="5.78564" gradientUnits="userSpaceOnUse">
<stop stop-color="#5E32B6"/>
<stop offset="1" stop-color="#D538F6"/>
</linearGradient>
<linearGradient id="paint2_linear_452_612" x1="3.34356" y1="5.78564" x2="16.4804" y2="5.78564" gradientUnits="userSpaceOnUse">
<stop stop-color="#5E32B6"/>
<stop offset="1" stop-color="#D538F6"/>
</linearGradient>
</defs>
</svg>
