<svg width="19" height="18" viewBox="0 0 19 18" fill="none" xmlns="http://www.w3.org/2000/svg">
<path d="M10.7067 3C10.7067 3.55234 10.259 4 9.70687 4C9.15472 4 8.70703 3.55234 8.70703 3C8.70703 2.44766 9.15472 2 9.70687 2C10.259 2 10.7067 2.44766 10.7067 3Z" stroke="url(#paint0_linear_452_372)"/>
<path d="M11.2065 9.25H10.7065V9.75V13H9.70671H8.70687V9.75V9.25H8.20687H7.20703V6.75C7.20703 6.19884 7.6559 5.75 8.20687 5.75H11.2065C11.7575 5.75 12.2064 6.19884 12.2064 6.75V9.25H11.2065Z" stroke="url(#paint1_linear_452_372)"/>
<path d="M14.5332 9.67373L14.7569 9.22545C16.0634 10.0005 16.7059 11.0122 16.7059 11.9996C16.7059 13.0213 16.0391 14.0089 14.7758 14.767C13.5188 15.5213 11.737 15.9996 9.70672 15.9996C7.67647 15.9996 5.89462 15.5213 4.63759 14.767C3.37438 14.0089 2.70752 13.0213 2.70752 11.9996C2.70752 11.0123 3.35003 10.0006 4.65579 9.22554L4.87955 9.67384C3.89742 10.2646 3.20736 11.0698 3.20736 11.9996C3.20736 12.9947 4.03971 13.8741 5.14307 14.4714C6.28464 15.0893 7.86864 15.4996 9.70672 15.4996C11.5448 15.4996 13.1288 15.0893 14.2704 14.4714C15.3737 13.8741 16.2061 12.9947 16.2061 11.9996C16.2061 11.0697 15.5159 10.2645 14.5332 9.67373Z" fill="url(#paint2_linear_452_372)" stroke="url(#paint3_linear_452_372)"/>
<defs>
<linearGradient id="paint0_linear_452_372" x1="7.73131" y1="3.05999" x2="11.4842" y2="3.05999" gradientUnits="userSpaceOnUse">
<stop stop-color="#5E32B6"/>
<stop offset="1" stop-color="#D538F6"/>
</linearGradient>
<linearGradient id="paint1_linear_452_372" x1="5.75559" y1="9.53998" x2="13.2614" y2="9.53998" gradientUnits="userSpaceOnUse">
<stop stop-color="#5E32B6"/>
<stop offset="1" stop-color="#D538F6"/>
</linearGradient>
<linearGradient id="paint2_linear_452_372" x1="-0.17108" y1="12.6785" x2="18.5934" y2="12.6785" gradientUnits="userSpaceOnUse">
<stop stop-color="#5E32B6"/>
<stop offset="1" stop-color="#D538F6"/>
</linearGradient>
<linearGradient id="paint3_linear_452_372" x1="-0.17108" y1="12.6785" x2="18.5934" y2="12.6785" gradientUnits="userSpaceOnUse">
<stop stop-color="#5E32B6"/>
<stop offset="1" stop-color="#D538F6"/>
</linearGradient>
</defs>
</svg>
